<?xml version="1.0" encoding="UTF-8" standalone="no"?>
<!-- Created with Inkscape (http://www.inkscape.org/) -->
<svg
   xmlns:dc="http://purl.org/dc/elements/1.1/"
   xmlns:cc="http://web.resource.org/cc/"
   xmlns:rdf="http://www.w3.org/1999/02/22-rdf-syntax-ns#"
   xmlns:svg="http://www.w3.org/2000/svg"
   xmlns="http://www.w3.org/2000/svg"
   xmlns:sodipodi="http://sodipodi.sourceforge.net/DTD/sodipodi-0.dtd"
   xmlns:inkscape="http://www.inkscape.org/namespaces/inkscape"
   id="svg2"
   sodipodi:version="0.32"
   inkscape:version="0.44"
   width="100"
   height="100"
   version="1.0"
   sodipodi:docbase="D:\wiki_svg"
   sodipodi:docname="Psi.PNG.svg">
  <metadata
     id="metadata7">
    <rdf:RDF>
      <cc:Work
         rdf:about="">
        <dc:format>image/svg+xml</dc:format>
        <dc:type
           rdf:resource="http://purl.org/dc/dcmitype/StillImage" />
      </cc:Work>
    </rdf:RDF>
  </metadata>
  <defs
     id="defs5" />
  <sodipodi:namedview
     inkscape:window-height="618"
     inkscape:window-width="853"
     inkscape:pageshadow="2"
     inkscape:pageopacity="0.0"
     guidetolerance="10.0"
     gridtolerance="10.0"
     objecttolerance="10.0"
     borderopacity="1.0"
     bordercolor="#666666"
     pagecolor="#ffffff"
     id="base"
     borderlayer="true"
     inkscape:showpageshadow="false"
     inkscape:zoom="1"
     inkscape:cx="5.8231552"
     inkscape:cy="45.250478"
     inkscape:window-x="14"
     inkscape:window-y="94"
     inkscape:current-layer="svg2" />
  <path
     id="path1873"
     style="fill:black;fill-opacity:1;fill-rule:evenodd;stroke:none;stroke-width:1px;stroke-linecap:butt;stroke-linejoin:miter;stroke-opacity:1"
     d="M 67.304417,87.23545 L 67.304417,85.119048 C 67.304417,85.119048 60.69066,85.251323 58.838808,83.796297 C 56.986956,82.34127 55.79648,79.828043 55.79648,75.992064 C 55.79648,72.156085 55.79648,63.955027 55.79648,63.955027 C 55.79648,63.955027 73.389073,62.103174 78.944629,56.547619 C 84.500184,50.992063 86.087485,41.997355 86.087485,36.441799 C 86.087485,33.664021 86.116596,26.197958 86.116596,22.294963 C 86.116596,19.911083 86.537841,15.666579 89.773194,15.666579 C 91.38192,15.666579 93.891718,15.674603 93.891718,15.674603 L 93.891718,12.896826 C 93.891718,12.896826 90.452565,12.76455 88.336163,12.76455 C 86.219761,12.76455 81.127168,13.095238 78.547803,15.674603 C 75.968438,18.253969 74.314999,25.330688 74.314999,37.5 C 74.314999,49.669313 73.256798,52.976191 70.21447,56.018519 C 65.650499,60.58249 55.79648,60.912699 55.79648,60.912699 C 55.79648,60.912699 55.79648,30.224868 55.79648,25.992064 C 55.79648,21.75926 55.664205,19.510582 57.648332,17.526455 C 59.632459,15.542328 66.246216,15.806879 66.246216,15.806879 L 66.246216,12.764551 L 33.753784,12.764551 L 33.753784,15.806879 C 33.753784,15.806879 40.367541,15.542328 42.351668,17.526455 C 44.335795,19.510582 44.20352,21.75926 44.20352,25.992064 C 44.20352,30.224868 44.20352,60.912699 44.20352,60.912699 C 44.20352,60.912699 34.349501,60.58249 29.78553,56.018519 C 26.743202,52.976191 25.685001,49.669313 25.685001,37.5 C 25.685001,25.330688 24.031562,18.253969 21.452197,15.674603 C 18.872832,13.095238 13.780239,12.76455 11.663837,12.76455 C 9.5474351,12.76455 6.1082819,12.896826 6.1082819,12.896826 L 6.1082819,15.674603 C 6.1082819,15.674603 8.6180798,15.666579 10.226806,15.666579 C 13.462159,15.666579 13.883404,19.911083 13.883404,22.294963 C 13.883404,26.197958 13.912515,33.664021 13.912515,36.441799 C 13.912515,41.997355 15.499816,50.992063 21.055371,56.547619 C 26.610927,62.103174 44.20352,63.955027 44.20352,63.955027 C 44.20352,63.955027 44.20352,72.156085 44.20352,75.992064 C 44.20352,79.828043 43.013044,82.34127 41.161192,83.796297 C 39.30934,85.251323 32.695583,85.119048 32.695583,85.119048 L 32.695583,87.23545"
     sodipodi:nodetypes="ccsscssssccsssscssccccsscssssccsssscsscc" />
<!-- Invisible Anchor Circle at (50, 50) -->
  <circle id="anchor" cx="50" cy="50" r="0.001" fill="none" />
</svg>
